<?xml version="1.0" encoding="UTF-8" standalone="no"?>
<svg
   xmlns:dc="http://purl.org/dc/elements/1.1/"
   xmlns:cc="http://creativecommons.org/ns#"
   xmlns:rdf="http://www.w3.org/1999/02/22-rdf-syntax-ns#"
   xmlns:svg="http://www.w3.org/2000/svg"
   xmlns="http://www.w3.org/2000/svg"
   xmlns:sodipodi="http://sodipodi.sourceforge.net/DTD/sodipodi-0.dtd"
   xmlns:inkscape="http://www.inkscape.org/namespaces/inkscape"
   aria-hidden="true"
   focusable="false"
   data-prefix="fad"
   data-icon="map-marker"
   class="svg-inline--fa fa-map-marker fa-w-12"
   role="img"
   viewBox="0 0 384 512"
   version="1.1"
   id="svg8"
   sodipodi:docname="logo.svg"
   inkscape:version="0.92.4 (5da689c313, 2019-01-14)">
  <title
     id="title4643">Smart Heritage</title>
  <metadata
     id="metadata14">
    <rdf:RDF>
      <cc:Work
         rdf:about="">
        <dc:format>image/svg+xml</dc:format>
        <dc:type
           rdf:resource="http://purl.org/dc/dcmitype/StillImage" />
        <dc:title>Smart Heritage</dc:title>
      </cc:Work>
    </rdf:RDF>
  </metadata>
  <defs
     id="defs12" />
  <sodipodi:namedview
     pagecolor="#ffffff"
     bordercolor="#666666"
     borderopacity="1"
     objecttolerance="10"
     gridtolerance="10"
     guidetolerance="10"
     inkscape:pageopacity="0"
     inkscape:pageshadow="2"
     inkscape:window-width="3240"
     inkscape:window-height="2066"
     id="namedview10"
     showgrid="false"
     inkscape:zoom="1.3037281"
     inkscape:cx="211.48929"
     inkscape:cy="266.84131"
     inkscape:window-x="-11"
     inkscape:window-y="-11"
     inkscape:window-maximized="1"
     inkscape:current-layer="svg8" />
  <g
     class="fa-group"
     id="g6"
     style="fill:#344C56;fill-opacity:1">
    <path
       class="fa-secondary"
       fill="currentColor"
       d="M384 192c0 77.41-27 99-172.27 309.67a24 24 0 0 1-39.46 0C27 291 0 269.41 0 192 0 86 86 0 192 0s192 86 192 192z"
       opacity="0.4"
       id="path2"
       style="fill:#344C56;fill-opacity:1" />
    <path
       class="fa-primary"
       fill="currentColor"
       d=""
       id="path4"
       style="fill:#344C56;fill-opacity:1" />
  </g>
  <path
     id="path16"
     d="M 158.52407,102.82188 H 138.43852 A 40.171108,40.171108 0 0 0 98.267411,142.993 v 15.68347 a 13.415476,13.415476 0 0 1 -3.925057,9.47787 l -18.934813,18.93064 a 13.390369,13.390369 0 0 0 0,18.939 l 18.934813,18.93481 a 13.390369,13.390369 0 0 1 3.925057,9.46951 v 15.68765 a 40.171108,40.171108 0 0 0 40.171109,40.17111 h 20.08555 a 6.6951846,6.6951846 0 0 0 6.69518,-6.69518 v -13.39037 a 6.6951846,6.6951846 0 0 0 -6.69518,-6.69519 h -20.08555 a 13.390369,13.390369 0 0 1 -13.39037,-13.39037 v -15.68346 a 40.171108,40.171108 0 0 0 -11.77098,-28.40851 l -9.46531,-9.4695 9.4695,-9.4695 a 40.171108,40.171108 0 0 0 11.76679,-28.40851 V 142.993 a 13.390369,13.390369 0 0 1 13.39037,-13.39037 h 20.08555 a 6.6951846,6.6951846 0 0 0 6.69518,-6.69519 v -13.39037 a 6.6951846,6.6951846 0 0 0 -6.69518,-6.69519 z m 150.06839,84.2631 -18.93482,-18.93064 a 13.415476,13.415476 0 0 1 -3.92506,-9.47787 V 142.993 a 40.171108,40.171108 0 0 0 -40.17109,-40.17112 h -20.08557 a 6.6951846,6.6951846 0 0 0 -6.69518,6.69519 v 13.39037 a 6.6951846,6.6951846 0 0 0 6.69518,6.69519 h 20.08557 a 13.390369,13.390369 0 0 1 13.39036,13.39037 v 15.67928 a 40.171108,40.171108 0 0 0 11.77097,28.41687 l 9.46532,9.46533 -9.46532,9.4695 a 40.171108,40.171108 0 0 0 -11.77097,28.40851 v 15.68346 a 13.390369,13.390369 0 0 1 -13.39037,13.39037 h -20.08556 a 6.6951846,6.6951846 0 0 0 -6.69518,6.69519 v 13.39037 a 6.6951846,6.6951846 0 0 0 6.69518,6.69518 h 20.08557 a 40.171108,40.171108 0 0 0 40.17109,-40.17111 V 234.4283 a 13.390369,13.390369 0 0 1 3.92506,-9.46951 l 18.93482,-18.93481 a 13.390369,13.390369 0 0 0 0,-18.939 z"
     inkscape:connector-curvature="0"
     style="fill:#101B2D;fill-opacity:1;stroke-width:0.41844904" />
</svg>
